# xmcd CD database file
#
# Track frame offsets:
#	187
#	19262
#	40912
#	58912
#	76497
#	96292
#	115482
#	137837
#	157795
#	179942
#
# Disc length: 2740 seconds
#
# Revision: 0
# Processed by: cddbd v1.5PL3 Copyright (c) Steve Scherf et al.
# Submitted via: CDex 1.50
#
DISCID=8c0ab20a
DTITLE=Wink - Αφροδιτη
DYEAR=1993
DGENRE=JPop
TTITLE0=結婚しようね
TTITLE1=夏に会えなくて
TTITLE2=fishselfish
TTITLE3=SAVE MY LIFE
TTITLE4=私みたいにいいかげんな彼氏
TTITLE5=月と太陽
TTITLE6=永遠のレディドール
TTITLE7=幻が叫んでる
TTITLE8=I Wanna Leave You
TTITLE9=おしえて
EXTD=YEAR: 1993/06/25
EXTT0=
EXTT1=
EXTT2=
EXTT3=
EXTT4=
EXTT5=
EXTT6=
EXTT7=
EXTT8=
EXTT9=
PLAYORDER=
